<svg width="81" height="40" viewBox="0 0 81 40" fill="none" xmlns="http://www.w3.org/2000/svg">
<path d="M0.66748 39.8323V35.4801C2.83939 35.2117 4.53051 34.4989 5.74086 33.3417C6.95399 32.1873 9.2461 31.6101 12.6172 31.6101C16.1504 31.6101 18.6437 32.3089 20.0972 33.7065C21.5508 35.1041 23.6961 35.8029 26.5333 35.8029C29.404 35.8029 31.5662 35.1041 33.0197 33.7065C34.4732 32.3089 36.9666 31.6101 40.4998 31.6101C43.9994 31.6101 46.4928 32.3089 47.9799 33.7065C49.4669 35.1041 51.629 35.8029 54.4662 35.8029C57.3369 35.8029 59.4907 35.1041 60.9274 33.7065C62.367 32.3089 64.852 31.6101 68.3824 31.6101C71.7534 31.6101 74.0455 32.1887 75.2587 33.3459C76.469 34.5003 78.1601 35.2131 80.332 35.4843V39.8365C77.7996 39.5122 75.7898 38.7589 74.3027 37.5765C72.8156 36.3941 70.8422 35.8029 68.3824 35.8029C65.5983 35.8029 63.4655 36.5017 61.984 37.8994C60.5026 39.297 57.9966 39.9958 54.4662 39.9958C50.9666 39.9958 48.4732 39.297 46.9861 37.8994C45.4991 36.5017 43.3369 35.8043 40.4998 35.8071C37.629 35.8071 35.4669 36.5059 34.0134 37.9036C32.5599 39.3012 30.0665 40 26.5333 40C23.0001 40 20.5026 39.3012 19.0406 37.9036C17.5787 36.5059 15.4376 35.8071 12.6172 35.8071C10.0679 35.8071 8.10703 36.3983 6.73457 37.5807C5.3621 38.7659 3.33974 39.5192 0.66748 39.8407M0.66748 24.0335V19.6813C2.83939 19.413 4.53051 18.7002 5.74086 17.543C6.95399 16.3885 9.2461 15.8113 12.6172 15.8113C16.1168 15.8113 18.6018 16.5101 20.0721 17.9078C21.5424 19.3054 23.6961 20.0042 26.5333 20.0042C29.404 20.0042 31.5662 19.3054 33.0197 17.9078C34.4732 16.5101 36.9666 15.8099 40.4998 15.8071C43.9994 15.8071 46.4872 16.5059 47.9631 17.9036C49.439 19.3012 51.5913 20 54.4201 20C57.288 20 59.4487 19.3012 60.9023 17.9036C62.3558 16.5059 64.8492 15.8071 68.3824 15.8071C71.7199 15.8071 74.012 16.3857 75.2587 17.543C76.5026 18.6974 78.1937 19.4088 80.332 19.6771V24.0293C77.7688 23.7079 75.752 22.956 74.2817 21.7736C72.8114 20.5912 70.845 20 68.3824 20C65.5983 20 63.4655 20.6988 61.984 22.0964C60.5026 23.4941 57.9966 24.1929 54.4662 24.1929C50.9666 24.1929 48.4732 23.4941 46.9861 22.0964C45.5019 20.6988 43.3397 20 40.4998 20C37.629 20 35.4753 20.6988 34.0385 22.0964C32.599 23.4941 30.114 24.1929 26.5836 24.1929C23.0532 24.1929 20.5375 23.4941 19.0365 22.0964C17.5354 20.6988 15.3956 20 12.6172 20C10.1014 20 8.14058 20.5912 6.73457 21.7736C5.32856 22.956 3.30619 23.7093 0.66748 24.0335ZM0.66748 8.22642V3.87421C2.83939 3.60587 4.53051 2.89308 5.74086 1.73585C6.95399 0.581412 9.2461 0.00419257 12.6172 0.00419257C16.1168 0.00419257 18.6018 0.703004 20.0721 2.10063C21.5424 3.49825 23.6961 4.19706 26.5333 4.19706C29.404 4.19706 31.5662 3.49825 33.0197 2.10063C34.4732 0.703004 36.9666 0.00279525 40.4998 0C43.9994 0 46.4872 0.69881 47.9631 2.09643C49.439 3.49406 51.5913 4.19287 54.4201 4.19287C57.288 4.19287 59.4487 3.49406 60.9023 2.09643C62.3558 0.69881 64.8492 0 68.3824 0C71.7199 0 74.012 0.577217 75.2587 1.73165C76.5026 2.88889 78.1937 3.60168 80.332 3.87002V8.22222C77.7688 7.90077 75.752 7.14885 74.2817 5.96646C72.8114 4.78407 70.845 4.19287 68.3824 4.19287C65.5983 4.19287 63.4655 4.89168 61.984 6.28931C60.5026 7.68693 57.9966 8.38574 54.4662 8.38574C50.9666 8.38574 48.4732 7.68693 46.9861 6.28931C45.5019 4.89168 43.3397 4.19287 40.4998 4.19287C37.629 4.19287 35.4753 4.89168 34.0385 6.28931C32.599 7.68693 30.114 8.38574 26.5836 8.38574C23.0532 8.38574 20.5375 7.68693 19.0365 6.28931C17.5354 4.89168 15.3956 4.19287 12.6172 4.19287C10.1014 4.19287 8.11402 4.78407 6.6549 5.96646C5.19578 7.14885 3.19998 7.90217 0.66748 8.22642Z" fill="#2B4931"/>
</svg>
