<svg width="41" height="40" viewBox="0 0 41 40" fill="none" xmlns="http://www.w3.org/2000/svg">
<path d="M22.5 0.0999999V4.14C30.4 5.12 36.5 11.84 36.5 20C36.5 26.42 32.66 32 27.06 34.56L22.5 30V40H32.5L30.06 37.56C36.32 34.14 40.5 27.52 40.5 20C40.5 9.64 32.6 1.1 22.5 0.0999999ZM18.5 0C14.6 0.4 10.9 1.92 7.86 4.42L10.7 7.26C12.9704 5.51037 15.6598 4.38636 18.5 4V0ZM4.9 7.36C2.42 10.4 0.9 14.1 0.5 18H4.5C4.88 15.16 6 12.46 7.76 10.2L4.9 7.36ZM8.5 12V16H14.5V18H12.5C10.3 18 8.5 19.8 8.5 22V28H18.5V24H12.5V22H14.5C16.72 22 18.5 20.22 18.5 18V16C18.5 14.9391 18.0786 13.9217 17.3284 13.1716C16.5783 12.4214 15.5609 12 14.5 12H8.5ZM20.5 12V22H26.5V28H30.5V22H32.5V18H30.5V12H26.5V18H24.5V12H20.5ZM0.5 22C0.9 25.9 2.44 29.6 4.94 32.64L7.78 29.8C6.02321 27.5317 4.89223 24.8421 4.5 22H0.5ZM10.72 32.74L7.86 35.58C10.8988 38.0611 14.5977 39.5977 18.5 40V36C15.6633 35.6232 12.978 34.498 10.72 32.74Z" fill="#2B4931"/>
</svg>
