<svg width="41" height="40" viewBox="0 0 41 40" fill="none" xmlns="http://www.w3.org/2000/svg">
<path d="M38.7039 14.7099C38.9197 14.2165 38.9311 13.6578 38.7355 13.1561C38.54 12.6544 38.1534 12.2507 37.6606 12.0336L11.071 0.328083C9.04753 -0.562644 6.55634 0.431797 5.69205 2.44712L1.19774 12.9284C0.774369 13.9198 0.761885 15.0387 1.16303 16.0393C1.56418 17.0399 2.34615 17.8403 3.33712 18.2646L15.6161 23.5277L13.0944 29.8319H4.30309V23.731H0.23584V40H4.30309V33.8991H13.0944C14.7681 33.8991 16.2506 32.8945 16.8688 31.3408L19.3539 25.1301L29.9389 29.6651C30.4319 29.8767 30.9885 29.8849 31.4874 29.6879C31.9864 29.491 32.3874 29.1049 32.603 28.6137L33.2375 27.1699L36.6967 28.5527L40.7639 18.3846L37.6403 17.138L38.7039 14.7099ZM29.6868 25.1342L4.93961 14.5289L9.42985 4.05165L34.1628 14.9397L29.6868 25.1342Z" fill="#2B4931"/>
</svg>
