<svg width="58" height="40" viewBox="0 0 58 40" fill="none" xmlns="http://www.w3.org/2000/svg">
<path d="M28.9999 40C27.3529 40 25.9607 39.4314 24.8235 38.2941C23.6862 37.1569 23.1176 35.7647 23.1176 34.1176C23.1176 32.4706 23.6862 31.0784 24.8235 29.9412C25.9607 28.8039 27.3529 28.2353 28.9999 28.2353C30.647 28.2353 32.0392 28.8039 33.1764 29.9412C34.3137 31.0784 34.8823 32.4706 34.8823 34.1176C34.8823 35.7647 34.3137 37.1569 33.1764 38.2941C32.0392 39.4314 30.647 40 28.9999 40ZM15.7058 26.7059L10.7646 21.6471C13.0784 19.3333 15.7945 17.5004 18.9129 16.1482C22.0313 14.7961 25.3937 14.1192 28.9999 14.1176C32.6062 14.1161 35.9694 14.8024 39.0894 16.1765C42.2094 17.5506 44.9247 19.4133 47.2352 21.7647L42.2941 26.7059C40.5686 24.9804 38.5686 23.6275 36.2941 22.6471C34.0196 21.6667 31.5882 21.1765 28.9999 21.1765C26.4117 21.1765 23.9803 21.6667 21.7058 22.6471C19.4313 23.6275 17.4313 24.9804 15.7058 26.7059ZM5.70582 16.7059L0.764648 11.7647C4.37249 8.07843 8.58818 5.19608 13.4117 3.11765C18.2352 1.03922 23.4313 0 28.9999 0C34.5686 0 39.7646 1.03922 44.5882 3.11765C49.4117 5.19608 53.6274 8.07843 57.2352 11.7647L52.2941 16.7059C49.2745 13.6863 45.7748 11.3239 41.7952 9.61882C37.8156 7.91373 33.5505 7.06039 28.9999 7.05882C24.4494 7.05726 20.185 7.91059 16.207 9.61882C12.229 11.3271 8.72857 13.6894 5.70582 16.7059Z" fill="#2B4931"/>
</svg>
